Coordinates
version=1
nRows=9
nColumns=24
inDegrees=yes

Units are S.I. units (second, meters, Newtons, ...)
Angles are in degrees.

endheader
time	pelvis_tilt	pelvis_list	pelvis_rotation	pelvis_tx	pelvis_ty	pelvis_tz	hip_flexion_r	hip_adduction_r	hip_rotation_r	knee_angle_r	ankle_angle_r	subtalar_angle_r	mtp_angle_r	hip_flexion_l	hip_adduction_l	hip_rotation_l	knee_angle_l	ankle_angle_l	subtalar_angle_l	mtp_angle_l	lumbar_extension	lumbar_bending	lumbar_rotation
      0.67950000	      3.30985372	     -3.34452409	     -4.86934886	     -0.52963434	      1.02452296	      0.33727711	      6.37141029	      6.67157546	     -3.93114497	    -12.52962671	     -3.53944587	    -13.87103321	     -2.74549262	     17.52189277	     -9.21975911	     -9.28593971	    -69.90917754	      5.83398714	    -12.34981506	     -6.85414779	    -16.10988900	      5.64461380	      7.29734538
      0.68366667	      3.27188714	     -3.22827589	     -4.89062898	     -0.52425891	      1.02544593	      0.33757847	      5.90064488	      6.55730326	     -3.85038887	    -12.17703215	     -3.46011965	    -13.83838745	     -2.75317130	     18.14730998	     -9.06148035	     -9.22439652	    -69.32340878	      5.98081159	    -12.38433651	     -6.90755082	    -16.06600484	      5.48551057	      7.38948514
      0.68783333	      3.23379047	     -3.11399924	     -4.91841743	     -0.51886618	      1.02633341	      0.33789373	      5.42912056	      6.44568903	     -3.76506415	    -11.82420822	     -3.38828385	    -13.80854591	     -2.76170205	     18.74168208	     -8.90921479	     -9.18881474	    -68.65653854	      6.11041863	    -12.44113352	     -6.95747499	    -16.02005669	      5.33240123	      7.47183856
      0.69200000	      3.21926370	     -2.99697699	     -4.94881640	     -0.51348755	      1.02721200	      0.33822270	      4.93429530	      6.32844208	     -3.68411773	    -11.47175590	     -3.32056697	    -13.77780509	     -2.77227172	     19.28208528	     -8.75459997	     -9.17656341	    -67.90949993	      6.21765782	    -12.52102527	     -7.01256034	    -16.00008891	      5.16965930	      7.56044438
      0.69616667	      3.28535818	     -2.86364557	     -5.00282525	     -0.50808666	      1.02822648	      0.33860031	      4.34602205	      6.18584511	     -3.58853898	    -11.11115294	     -3.19587453	    -13.68541626	     -2.80094501	     19.68285280	     -8.58672524	     -9.22951701	    -67.04728808	      6.24009718	    -12.69136553	     -7.15701269	    -16.07379766	      4.95580198	      7.69671839
      0.70033333	      3.23341077	     -2.76964116	     -5.03290761	     -0.50266198	      1.02895664	      0.33893519	      3.88694647	      6.09560311	     -3.51254455	    -10.75352141	     -3.16179559	    -13.67538822	     -2.81285331	     20.20893052	     -8.46606703	     -9.24317719	    -66.16892008	      6.37211002	    -12.73656428	     -7.20699993	    -16.00529943	      4.82902276	      7.75131601
      0.70450000	      3.31175879	     -2.63267201	     -5.11100574	     -0.49724468	      1.02990365	      0.33937224	      3.28955920	      5.94920887	     -3.40158894	    -10.39969063	     -3.04434880	    -13.60844738	     -2.84834732	     20.52771024	     -8.30736224	     -9.35985246	    -65.15261909	      6.36224637	    -12.93878714	     -7.36005738	    -16.08786117	      4.61105668	      7.88465233
      0.70866667	      3.35294288	     -2.52101182	     -5.16450784	     -0.49182778	      1.03071866	      0.33977062	      2.72961809	      5.83191373	     -3.30581156	    -10.03886149	     -2.97451879	    -13.57736890	     -2.88754208	     20.87434931	     -8.17295683	     -9.45014058	    -64.09612110	      6.40899870	    -13.04915656	     -7.51561703	    -16.13416125	      4.42415389	      7.98962314
      0.71283333	      3.39608399	     -2.41776629	     -5.22436728	     -0.48641246	      1.03147537	      0.34018415	      2.17080366	      5.72296535	     -3.20900583	     -9.68368640	     -2.90064467	    -13.53595894	     -2.92989111	     21.18984818	     -8.05196828	     -9.56156460	    -62.97603700	      6.44536038	    -13.17683796	     -7.67622346	    -16.18160411	      4.25000909	      8.09444032
